/* XPM */
static char *result[] = {
/* columns rows colors chars-per-pixel */
"64 64 235 2 ",
"   c #010104",
".  c #00010C",
"X  c #0C0B0B",
"o  c #120F0A",
"O  c #171209",
"+  c #010313",
"@  c #060914",
"#  c #0B0D14",
"$  c #000419",
"%  c #0A0E19",
"&  c #060A18",
"*  c #0E1015",
"=  c #0D1019",
"-  c #141415",
";  c #1A1613",
":  c #1C1B14",
">  c #141519",
",  c #16181A",
"<  c #1A1A1A",
"1  c #19171A",
"2  c #100F13",
"3  c #231E15",
"4  c #211F1A",
"5  c #241C0D",
"6  c #262115",
"7  c #2A2414",
"8  c #24221B",
"9  c #2A261B",
"0  c #2D291C",
"q  c #2F2915",
"w  c #332A15",
"e  c #332D1B",
"r  c #372D15",
"t  c #3D3216",
"y  c #37301D",
"u  c #3C331B",
"i  c #32260D",
"p  c #1D1D22",
"a  c #1F2122",
"s  c #1A2233",
"d  c #242422",
"f  c #292721",
"g  c #2D2A22",
"h  c #2A2B2B",
"j  c #312E23",
"k  c #353225",
"l  c #3B3524",
"z  c #3F3925",
"x  c #35332B",
"c  c #3D392B",
"v  c #3A362B",
"b  c #393933",
"n  c #282F3A",
"m  c #423515",
"M  c #41371B",
"N  c #443A1C",
"B  c #4A3E1C",
"V  c #493A14",
"C  c #503D10",
"Z  c #443B23",
"A  c #493E23",
"S  c #433D2B",
"D  c #403721",
"F  c #423F32",
"G  c #4E411C",
"H  c #4E4016",
"J  c #53451D",
"K  c #57481C",
"L  c #5C4C1D",
"P  c #554415",
"I  c #614E1D",
"U  c #614E16",
"Y  c #69551D",
"T  c #735D1D",
"R  c #78621D",
"E  c #4C4224",
"W  c #45402E",
"Q  c #4A432B",
"!  c #524623",
"~  c #554925",
"^  c #5B4C23",
"/  c #534A2C",
"(  c #5A4E2B",
")  c #504529",
"_  c #5E512C",
"`  c #454232",
"'  c #4B4632",
"]  c #4E4935",
"[  c #4C4A3B",
"{  c #464539",
"}  c #534C34",
"|  c #534E39",
" . c #5B5233",
".. c #56513B",
"X. c #5B553B",
"o. c #595238",
"O. c #614F22",
"+. c #645223",
"@. c #6E5923",
"#. c #62542B",
"$. c #6C5927",
"%. c #735D22",
"&. c #725F2C",
"*. c #655933",
"=. c #6C5E33",
"-. c #635B3B",
";. c #625833",
":. c #7B6423",
">. c #766229",
",. c #6C613B",
"<. c #6E6134",
"1. c #726233",
"2. c #7C6A35",
"3. c #76683A",
"4. c #5A5642",
"5. c #484B49",
"6. c #625D43",
"7. c #696345",
"8. c #676044",
"9. c #786D42",
"0. c #7C7655",
"q. c #7C7960",
"w. c #846B24",
"e. c #896E25",
"r. c #866F2D",
"t. c #8B7228",
"y. c #937524",
"u. c #9A7C27",
"i. c #816D35",
"p. c #887438",
"a. c #957E39",
"s. c #84691E",
"d. c #887945",
"f. c #917E43",
"g. c #827C59",
"h. c #A4841E",
"j. c #AB881E",
"k. c #BD8F16",
"l. c #BE9214",
"z. c #BE900B",
"x. c #9C833A",
"c. c #A58326",
"v. c #A98B3A",
"b. c #B69438",
"n. c #B7912C",
"m. c #C8980D",
"M. c #CB9B13",
"N. c #C2961B",
"B. c #C59A1C",
"V. c #CB9C1B",
"C. c #C19514",
"Z. c #DAAA1D",
"A. c #CDA01A",
"S. c #E4B11C",
"D. c #C69C22",
"F. c #C69A27",
"G. c #C69C35",
"H. c #C79E39",
"J. c #CBA32D",
"K. c #CBA228",
"L. c #D8AA27",
"P. c #CAA534",
"I. c #CBA53C",
"U. c #CDAA3D",
"Y. c #C8A436",
"T. c #D7A730",
"R. c #DAAA32",
"E. c #D6AA38",
"W. c #DAB033",
"Q. c #E5B424",
"!. c #EBB92B",
"~. c #E5B333",
"^. c #E8BB36",
"/. c #E0AE2C",
"(. c #F1C43A",
"). c #998749",
"_. c #8A825B",
"`. c #A28B45",
"'. c #AA9448",
"]. c #B69A46",
"[. c #B79E53",
"{. c #A69555",
"}. c #B8A359",
"|. c #BDA24A",
" X c #AB9E65",
".X c #BAA764",
"XX c #9D9261",
"oX c #CEAB43",
"OX c #C9A848",
"+X c #D0AD44",
"@X c #D1AE4A",
"#X c #D2B24B",
"$X c #D4B245",
"%X c #C3AC56",
"&X c #C6AB57",
"*X c #D1AF54",
"=X c #CEB055",
"-X c #D3B452",
";X c #D6BA5B",
":X c #DBBA58",
">X c #E3BE54",
",X c #E4BF4F",
"<X c #DABE62",
"1X c #D6BD66",
"2X c #C8B46D",
"3X c #EBC447",
"4X c #E7C555",
"5X c #F7D053",
"6X c #DBC265",
"7X c #DDC36C",
"8X c #DEC673",
"9X c #DDC776",
"0X c #F8D967",
"qX c #E2CD7C",
"wX c #E4CC72",
"eX c #EBD37A",
"rX c #F4D977",
"tX c #E7CD65",
"yX c #FFE67A",
"uX c #FFFA68",
"iX c #DBCE8C",
"pX c #E6D181",
"aX c #E9D788",
"sX c #EADD97",
"dX c #EDD783",
"fX c #FEE98A",
"gX c #F6E597",
"hX c #FCEC9B",
"jX c #F7E69A",
"kX c #FFF698",
"lX c #FFF18B",
"zX c #F4EAA8",
"xX c #FFFFAB",
"cX c #F7EEAF",
"vX c None",
/* pixels */
"vXvXvXvXvXvXvXvXvXvXvXvXvXvXvXvXvXvXvXvXvXvXvXvXvXvXvXvXvXvXvXvXvXvXvXvXvXvXvXvXvXvXvXvXvXvXvXvXvXvXvXvXvXvXvXvXvXvXvXvXvXvXvXvX",
"vXvXvXvXvXvXvXvXvXvXvXvXvXvXvXvXvXvXvXvXvXvXvXvXvXvXvXP.H.oX+XU.U.+XI.oX-XvXvXvXvXvXvXvXvXvXvXvXvXvXvXvXvXvXvXvXvXvXvXvXvXvXvXvX",
"vXvXvXvXvXvXvXvXvXvXvXvXvXvXvXvXvXvXvXvXvXvXvXoX:X7X8X8XwX1X7X:X:X@XI.H.G.H.E.@X;XvXvXvXvXvXvXvXvXvXvXvXvXvXvXvXvXvXvXvXvXvXvXvX",
"vXvXvXvXvXvXvXvXvXvXvXvXvXvXvXvXvXvXvXvXU.6XaXsXjXjXfXyX0X6X:X*X+XoX$X~.~.~.T.F.F.G.*XwXvXvXvXvXvXvXvXvXvXvXvXvXvXvXvXvXvXvXvXvX",
"vXvXvXvXvXvXvXvXvXvXvXvXvXvXvXvXvXvXU.8XzXcXxXkXqX.Xd.-.) z e e 0 e e M ^ %.u.T.~./.N.N.U.8XvXvXvXvXvXvXvXvXvXvXvXvXvXvXvXvXvXvX",
"vXvXvXvXvXvXvXvXvXvXvXvXvXvXvXvXJ.<XaXjXxXgX XX.0 # X . - m B I y M B e 4 3 2 9 O.y.T.!.V.k.I.8XvXvXvXvXvXvXvXvXvXvXvXvXvXvXvXvX",
"vXvXvXvXvXvXvXvXvXvXvXvXvXvXB.$X8XdXkXaXg.8   o V Y %.%.K m M ^ y 5 V %.@.O.%.M + > 9 @.F.!.M.N.+XqXvXvXvXvXvXvXvXvXvXvXvXvXvXvX",
"vXvXvXvXvXvXvXvXvXvXvXvXvXK.-X6XyXfX_.<   i w.e.M 7 9 9 e 3.1.4 0 9.;.7 < X e A M %.u > < &.R.!.l.D.<XvXvXvXvXvXvXvXvXvXvXvXvXvX",
"vXvXvXvXvXvXvXvXvXvXvXvXJ.#X4XyX2Xx   m %.I 7 - f ).`.d x [.a.4 j [.b.e k [.p.3 > o K u.Y 1 4 u.!.A.N.-XvXvXvXvXvXvXvXvXvXvXvXvX",
"vXvXvXvXvXvXvXvXvXvXvXJ.oX4XyXq.. X w.:.w z d.S b a.@.f d d 4 S j . # & 1 ,.t.D A d.f 3 %.u.m $ +.~.Z.N.@XvXvXvXvXvXvXvXvXvXvXvX",
"vXvXvXvXvXvXvXvXvXvXJ.P.3XrX5.  K #.: = f [.].e p a b 4.-.X.X.*. .S Z Z j X + + j &Xv.3 . 2 e.w.@ j U.~.J.@XvXvXvXvXvXvXvXvXvXvX",
"vXvXvXvXvXvXvXvXvXD.F.3XqXn   e.w.* <.p.f 8 < W 6.6.4.o.] ' W c S Q Q Q ^ ^ A D 1 . 4 7 a.,.# I :.1 > oX(.U.#XvXvXvXvXvXvXvXvXvX",
"vXvXvXvXvXvXvXvXB.N.^.qXs   w.L . <.,XE 1 Q ;.X.' ' } | ] ' c h h S S A A A A A ^ M 3 . } 4XL + 3 >.< p #X3X#XoXvXvXvXvXvXvXvXvX",
"vXvXvXvXvXvXvXD.N.L.0Xn   t.t - E E , 0 *. .W Q ' Q ` | ..} '.8XH.:.S ) A S D A N A ~ Z . # Z K # > t.t d :X4X-XI.vXvXvXvXvXvXvX",
"vXvXvXvXvXvXB.D.M.0X5.  e.J k 4X_ . E _ E Z Q Z Q ..| W v l d.{.n.r.Z A A A A A M A M B ^ 4 . 1.5X4 e y.. c 0X4X;XG.vXvXvXvXvXvX",
"vXvXvXvXvXvXD.m.(.q.  y.Y . r.2.; ^ ~ E E z z  .Q S v x x v g : d S Z B A ^ O.A A D m r M K e $ i.r.+ q w.X 8.0X6X-XvXvXvXvXvXvX",
"vXvXvXvXvXD.N.Q.2X+ M O.- ~ : # L ! N E k _ >.x k x ' X.X.' l Q ) M Z N u M N G B ! 1X&XZ t K e + 9 I & K I +  X0XwXoXvXvXvXvXvX",
"vXvXvXvXvXD.M.5Xn i >.% |.x.. L J M N u _ x.! d ] o.c k l ` ` -.1.( #./ / E M M r ^ 4X4X~ y M K e . ].[.. %.C h rXwX6XvXvXvXvXvX",
"vXvXvXvXK.l.(.0.. y.y f ].7 N K t M G G ~ k k ( y 9 M E Q ' ' x x v Z ! #.*.) Z M w P Y u N N N K : < b.d 4 e.  g.fXwX+XvXvXvXvX",
"vXvXvXvXB.M.>Xs H :.. w # y L t ^ r.G u 4 E ! 6 t G E g < = # * 2 # = < 8 M +.#.A M e l ( G M N N ! # > D . J P d qXeX7XvXvXvXvX",
"vXvXvXD.l.(.9.: t.: p.<.@ L G r p.2.q 8 J G 8 H G 8 = # - < < 1 < < < > = * 4 N +.G u Z E ( N N M ! M . p.d.@ e.O _.lXpXoXvXvXvX",
"vXvXvXD.M.4Xn 7 H a ;X#.Y G u u G t 6 G 0 > 8 u = > > % # @ X @ # % % # * @ . & t +.K z W ] ( u M M K * Q 4X- K P h dXdX<XvXvXvX",
"vXvXvXD.Q.`.% I 4 0 t ,.x.7 H G H 8 G 0 % , > & > > e t 0 d d d 4 4 4 4 8 k W 9 @ e #.J z Q o.E m N G E . ~ x # y.w XXhXqXvXvXvX",
"vXvXD.C.3XX.5 :.: r - ^ K t u G y u G % - > * > , # U h.Y.eXiX9X&XG.n.F.L.|.{.M & @ l *.E W '  .N u M ~ 4 = S . L O } lXsX+XvXvX",
"vXvXK.M.$Xb 5 ; ;.}.: V m H N N e G e q y 3 2.0X>.@ * > 7 }.xXdX:XT.T.L.R : > > < - * Q ;.Q ` X.Q m N E z + S Q 8 < ] eXgX<XvXvX",
"vXvXB.Z.'.p Y - p.x.: K M N G u 0 @ @ # , * F _ 6 > , ,   v hXqX*XG.T.j.* + - > ; < * 4 X.o.` .. .N M N ! - 8  .` c W }.zXwXvXvX",
"vXvXB.(.p.> e.9 7 7 M J N u H u w  ._  .y 0 , f  ., , , . S gXpX*XG.T.h.< = < < , < < # W ,.' [ X.E t Z ~ 8 < ;.l 9 3 d.kXpXvXvX",
"vXK.l.!.X.3 w.7 0 p P N N N N 4 ; 2.2.2.y 9 8 ( p.* - : . F gXpX*XG.T.c.: % < < < < , * 8 8.{ F 4.Q m N ) 0 < z 0 E   <.kXsXU.vX",
"vXK.B.^.W B P ` }.9 H N M G u = * @ .   & * .   . 8 < < . W gXeX=XG.R.h.: = , < < , # @ > ..).,.5.X.G G E E > - > > . ! yXzXoXvX",
"vXB.A.W.c r 6 _ v.6 J M u H u 8 9 6 _ ,.y 8 Q 3.z * , < . W gXpX-XG.T.h.: = , < , - Q ) f [ ,._ [ *.y N ^ _ } z W ] [ 3.wXzX;XvX",
"vXD.A.W.k . + w q 9 K M N N J 6 : q {.#XG 2 3.0X:.@ > ,   W gXpX=XG.T.h.: * < , @ 1.'.E j ..2.z 4.9 X = ^ ( ^ 9.9.*.{ =.7XzX<XvX",
"vXK.A.n.W r.#.8 9 9 J u u H u y 4 % 4 4 8 8 a g 8 , , < . W gXpX*XG.T.h.: = < < = l &.6 9 S  .] { ,.&.. > t ).wXP.y.h ! 6XcX6XvX",
"vXK.A.c.&.uX%X3.).; G u y H 7 2.2.- ).x.p.].x.a , ; < , . ` jXqX*XG.T.h.: = < < < # 9 1.S 8 b [ { 1.x.k 9 : | <._  .b ~ 6XcX6XvX",
"vXP.A.K.u ,.0 1.v.3 K N u N t _ / @ 4 0 9 0 : 8 , 1 < < . S gXpX*XG.T.h.< = , < < , . _ f.= x [ | x.aX|.X 9 ( Q ] } ..<.6XzX7XvX",
"vXP.V.L.l . @ 0 q 0 K u u H G q : 8 q 6 8 - o.}.+.# 1 < . S gXpX*XG.T.h.: * < < < < - 6 } 8.` ` { pXuXc., =. .g ] b b $.4XzX7XvX",
"vXU.B.S.u K @.* 7 8 K u u G J y 8 u 8 4 8 X 3.tX>.@ 1 < . ` gXpX*XG.T.c.: = < , , < < @ + 8.4.` 4.a.j.t./ / ;.2.0 2.c N rXzX7XvX",
"vX$XD.Q.K u +.8 }.E t H N m J t 4 r G 8 9 ;  .'.^ # , < . ` gXpX=XG.T.h.: = , , , < < # f 7...[ 4.v 7 u E z ] &.; 3.6 J yXsX6XvX",
"vXvXK.S.R , R 4 ]._ 9 G N u G M e e G u t 7 3.;X@.& - < . c gXeX=XY.T.h.: * < , < < < # ` 7.' ' 4.D t N E Q 0 p * . . t.lXsXvXvX",
"vXvXJ.Z.h.> :.0 w 8 6 I M u N K e 4 e T 0 O  .).K = , >   c zXpX=XG.R.j.* + , , , < # 4 ,.o.Q | o.M M M _ 9 4 h w ^ X b.hXpXvXvX",
"vXvXU.m.K.e G N - t 8 K N M M J u 0 q G N = + . & : - < w }.xXaX:XE.R.L.R 8 - ; , > # / ,.W ' ..Q t B M ~ : W f Y K O :XjXqXvXvX",
"vXvX;XC.Q.L 6 I - &X=.7 K M u N K q 6 0 Y y # , < # L h.Y.wXiX1XOXb.n.n.K.OX{.M & & z ,.E k ..o.M t N E 9 ,.%X9 t.- H 0XsXqXvXvX",
"vXvXvXK.S.e.: e.; p.r.- I N t M G G 0 8 y T e # - , e u 9 : < : < 4 4 3 4 j S 8 @ y <.~ M <.o.Z t B M ! % p.r.V :.. x.fXeXvXvXvX",
"vXvXvX$Xm.L.e E ! # u + V L M u u K u q 8 u @.u = * = % = # # # # # # % = 2 + & u $.^ y ).a.E u N M B l @ l = K u O 4XdXqXvXvXvX",
"vXvXvX8Xz.!.@.< y.> y <.< L G e G N H y 0 8 u <.) 8 # X - < , < < 1 1 1 # = 4 J Y ^ M E 3./ y N B M G ; 3.S * G . :.yXqXqXvXvXvX",
"vXvXvXvXP.m.K.< B m p 5X_ 6 U M u p._ J y 0 0 0  .3.] f < * = * - % > 1 9 M I +.! M G ) E u M M M N ; -.4X9 @.A O $XrXqXvXvXvXvX",
"vXvXvXvX7Xz.!.%.+ u.e B >.@ G L r ( 3.u _ z g d j c 6.0.7.} S g j l A B O.+.( A M G J ~ M u t H E t + 2.G < +.. T 0X9XpXvXvXvXvX",
"vXvXvXvXvXP.m.L.g E +.+ 6 G , J P L H q G _ ' k g 8 x c W ] *.2.#.^ O.( / ' A B G K G M D u i.p.r = ( 8 # w., O 3XwX9XvXvXvXvXvX",
"vXvXvXvXvX8Xm.S.c.+ ~ E . OX`.* G R `.' e E ( ;.F c x d 8 : / ).B M N A A A B J K Z u Z N M p._ @ '.b.@ w.+.. c.0X6XpXvXvXvXvXvX",
"vXvXvXvXvXvX+Xz.!.+.# @.: h b.f # N 1._ y l E E o.6.' c c l g 8 A A A B B B B M y Z A B M A e . 0 b.k L :.+ L 5X;XwXvXvXvXvXvXvX",
"vXvXvXvXvXvXqXD.M.~.l - y.t + B ~ p M #./ z l z W Q ..X.X.} Z c A ~ O.A A e 0 B ~ A M D B t 1 #.N . y y.# i (.>X;XsXvXvXvXvXvXvX",
"vXvXvXvXvXvXvX<XC.S.+Xp m u.8 . -X].# k ;._ Q W W S Q | [ ' 6X=XS F A S A p.2X,Xe.9 B M 4 2 ].OX# y #.$ : W.3X@XaXvXvXvXvXvXvXvX",
"vXvXvXvXvXvXvXvX$Xl.^.oXp w c.u & >.Q : , Q ,.X.' ` ' [ F [ =Xn.S S S S M [.&XI A A e > d N &.2 @.u.@ * K.3XoXqXvXvXvXvXvXvXvXvX",
"vXvXvXvXvXvXvXvXvXU.D.(.*Xp 7 c.L . # `.OXw 8 c X.7.4...] ' Z W F S S A A Z r e 7 4 l &Xa.X + %.w.> 3 K.^.J.7XvXvXvXvXvXvXvXvXvX",
"vXvXvXvXvXvXvXvXvXvXoXP.3X:Xx O s.@.3 f a.=.f Q x j ] } X.X...] } #. .A Z y 3 j ) 3 =.a.3 y w.^ + w L.~.D.6XvXvXvXvXvXvXvXvXvXvX",
"vXvXvXvXvXvXvXvXvXvXvXU.U.4X0X7.. r ^ q - @ k }.].g 8 W v g f 4 p f 9 j S 3 e &X].q . - w.w.9 + Y Q.Z.l.<XvXvXvXvXvXvXvXvXvXvXvX",
"vXvXvXvXvXvXvXvXvXvXvXvXU.*X4XyX.Xc   3 u.G - : G h F }.v.0 0 {.a.7 9 [.].e d Q 7 4 A w.+.+ 7 u.!.M.k.7XvXvXvXvXvXvXvXvXvXvXvXvX",
"vXvXvXvXvXvXvXvXvXvXvXvXvXH.-X6XyXdX_.f X C >.T m 7 1 j Z d h d.i.3 p A 9 8 9 m w.:.k $ 2 T L.Q.z.F.pXvXvXvXvXvXvXvXvXvXvXvXvXvX",
"vXvXvXvXvXvXvXvXvXvXvXvXvXvXG.#X7XdXkXaXg.z O 5 U %.B I B B m 5 D B N w @.e.%.D 4 - 7 T F.!.B.k.#XsXvXvXvXvXvXvXvXvXvXvXvXvXvXvX",
"vXvXvXvXvXvXvXvXvXvXvXvXvXvXvXvXoX<XpXjXxXzX X4.f ; 2 i m C m y O.O.O.j 9 3 3 w C y.L.^.A.N.I.wXvXvXvXvXvXvXvXvXvXvXvXvXvXvXvXvX",
"vXvXvXvXvXvXvXvXvXvXvXvXvXvXvXvXvXvXoX8XsXcXxXkXpX}.d.*./ A M 9 7 w m C C s.u.G.~./.F.k.U.<XvXvXvXvXvXvXvXvXvXvXvXvXvXvXvXvXvXvX",
"vXvXvXvXvXvXvXvXvXvXvXvXvXvXvXvXvXvXvXvXoX8XaXsXsXjXfXfXtX>X-X@XoXI.E./.~.~.T.F.F.G.@X7XvXvXvXvXvXvXvXvXvXvXvXvXvXvXvXvXvXvXvXvX",
"vXvXvXvXvXvXvXvXvXvXvXvXvXvXvXvXvXvXvXvXvXvXvX@X:X1X1X8XwX7X7X<X*X@XoXG.H.H.I.*X;XvXvXvXvXvXvXvXvXvXvXvXvXvXvXvXvXvXvXvXvXvXvXvX",
"vXvXvXvXvXvXvXvXvXvXvXvXvXvXvXvXvXvXvXvXvXvXvXvXvXvXvXT.U.+X+X@X@X@X@X-X:XvXvXvXvXvXvXvXvXvXvXvXvXvXvXvXvXvXvXvXvXvXvXvXvXvXvXvX",
"vXvXvXvXvXvXvXvXvXvXvXvXvXvXvXvXvXvXvXvXvXvXvXvXvXvXvXvXvXvXvXvXvXvXvXvXvXvXvXvXvXvXvXvXvXvXvXvXvXvXvXvXvXvXvXvXvXvXvXvXvXvXvXvX"
};
