/* XPM */
static char *result[] = {
/* columns rows colors chars-per-pixel */
"32 32 191 2 ",
"   c black",
".  c #01020C",
"X  c #0A0707",
"o  c #130C04",
"O  c #161109",
"+  c #1B1305",
"@  c #000113",
"#  c #070A13",
"$  c #0A0C14",
"%  c #0C0E18",
"&  c #0D1112",
"*  c #0E111A",
"=  c #121214",
"-  c #181614",
";  c #1D1B15",
":  c #151618",
">  c #171819",
",  c #1D1C1A",
"<  c #281D05",
"1  c #231B0A",
"2  c #221D15",
"3  c #211F1A",
"4  c #2B220D",
"5  c #33270D",
"6  c #272116",
"7  c #2A2415",
"8  c #2F2816",
"9  c #26231A",
"0  c #2A251B",
"q  c #2D291C",
"w  c #342C14",
"e  c #332C1B",
"r  c #3B3015",
"t  c #36301D",
"y  c #3C341C",
"u  c #1D1E20",
"i  c #1D2127",
"p  c #232424",
"a  c #282620",
"s  c #2C2A22",
"d  c #322E22",
"f  c #363123",
"g  c #3A3322",
"h  c #3F3824",
"j  c #34332B",
"k  c #39372A",
"l  c #3D3A2D",
"z  c #3F3D34",
"x  c #493B14",
"c  c #41361A",
"v  c #453A1C",
"b  c #4A3D1C",
"n  c #443715",
"m  c #443C23",
"M  c #493E22",
"N  c #443D2A",
"B  c #4D411B",
"V  c #54451E",
"C  c #57491B",
"Z  c #67531D",
"A  c #755B1C",
"S  c #7B5F17",
"D  c #7D6218",
"F  c #4C4225",
"G  c #46412D",
"H  c #4B432B",
"J  c #4B442A",
"K  c #524623",
"L  c #564924",
"P  c #5B4D24",
"I  c #51472C",
"U  c #534A2B",
"Y  c #5A4D29",
"T  c #5E5026",
"R  c #5D512D",
"E  c #444031",
"W  c #4B4633",
"Q  c #4E4834",
"!  c #4C493A",
"~  c #454438",
"^  c #524B33",
"/  c #504C39",
"(  c #5C5233",
")  c #5A543B",
"_  c #615125",
"`  c #62542C",
"'  c #66582E",
"]  c #6B5B2E",
"[  c #715E2F",
"{  c #625632",
"}  c #645935",
"|  c #6C5E33",
" . c #655B39",
".. c #7B672D",
"X. c #6E6034",
"o. c #726333",
"O. c #7D6A34",
"+. c #7B6B39",
"@. c #766739",
"#. c #635E46",
"$. c #756A42",
"%. c #82630F",
"&. c #94710E",
"*. c #8B6A17",
"=. c #936F1B",
"-. c #997717",
";. c #A47A07",
":. c #816E31",
">. c #85733B",
",. c #857132",
"<. c #927F3D",
"1. c #8A7A46",
"2. c #857D57",
"3. c #AF8817",
"4. c #B18716",
"5. c #AE8820",
"6. c #A3842A",
"7. c #B28B20",
"8. c #A18633",
"9. c #BA9632",
"0. c #BA9524",
"q. c #C79A1E",
"w. c #CC9B15",
"e. c #D09E10",
"r. c #D7A71A",
"t. c #E4B21F",
"y. c #C69A2D",
"u. c #D7AA26",
"i. c #CEA131",
"p. c #D0A93D",
"a. c #D5AB33",
"s. c #DAB23A",
"d. c #CAA22A",
"f. c #E0AC23",
"g. c #E8B829",
"h. c #ECBF3A",
"j. c #E5B837",
"k. c #EDC13B",
"l. c #F0C33B",
"z. c #96864B",
"x. c #8D8255",
"c. c #928350",
"v. c #A58C43",
"b. c #AC9344",
"n. c #A7904A",
"m. c #B89944",
"M. c #AF9B52",
"N. c #BFA242",
"B. c #9F9970",
"V. c #A09564",
"C. c #A29C75",
"Z. c #B5A86D",
"A. c #C7A447",
"S. c #DDB644",
"D. c #DFB94E",
"F. c #C4A755",
"G. c #C7B15F",
"H. c #E7BF42",
"J. c #E4BA4E",
"K. c #D4BA67",
"L. c #C8B363",
"P. c #EBC245",
"I. c #E8C04E",
"U. c #F2CA4C",
"Y. c #EAC552",
"T. c #E5C559",
"R. c #F7CB53",
"E. c #F6D157",
"W. c #D2C076",
"Q. c #E6CC6C",
"!. c #F3D56C",
"~. c #E3CB72",
"^. c #E0CD7E",
"/. c #ECD478",
"(. c #F8DB77",
"). c #FFE57B",
"_. c #B8B387",
"`. c #DECD83",
"'. c #E6D387",
"]. c #E8D589",
"[. c #ECDA8A",
"{. c #F2DC82",
"}. c #ECDD90",
"|. c #FFE585",
" X c #FFE984",
".X c #FEEB8D",
"XX c #F6E28A",
"oX c #F5EDAC",
"OX c #FFFFA3",
"+X c #FAF0AB",
"@X c None",
/* pixels */
"@X@X@X@X@X@X@X@X@X@X@X@X@X@Xs.H.S.S.@X@X@X@X@X@X@X@X@X@X@X@X@X@X",
"@X@X@X@X@X@X@X@X@X@X@X!.|.(.K.F.A.9.i.H.J.@X@X@X@X@X@X@X@X@X@X@X",
"@X@X@X@X@X@X@X@X@X).+X_.2.{ m b c b _ A =.y.H.~.@X@X@X@X@X@X@X@X",
"@X@X@X@X@X@X@XP..XC.I < 5 w K V K _ t q - C *.w.H.@X@X@X@X@X@X@X",
"@X@X@X@X@X@XU.W.! o B L J J Q H N g N M L P 2 L 4.g.@X@X@X@X@X@X",
"@X@X@X@X@Xl.Z.d 5 Y H { E ! E j s d t 0 I g P m 0 6.P.@X@X@X@X@X",
"@X@X@X@Xg.M., x J R g N ) / ~ 1.+.N M L e 2 M N t 0 b.R.@X@X@X@X",
"@X@X@Xr.N.j 5 ` M y I H G E E @.[ M M M M L 3 c ' 2 e G.R.@X@X@X",
"@X@X@Xj.! w { 8 v v ` U k E W l H U K y C m.T e ; Y r R (.p.@X@X",
"@X@Xt.<.e v F b _ b F B v y s s 0 e H K v P F v e H h 1 V.(.@X@X",
"@X@Xa.U y ' y B T y 0 7 0 * .   . @ @ 6 L v J B V ; I x } }.@X@X",
"@Xr.8.p y ` P y y t > s > x >.2.| A ..k & K I Q c y g h 7 Z.!.@X",
"@Xg.:.2 R v n b r 3 , @.h O $.OXR.f.C u $ a ( ! F B 0 s 2 x.|.@X",
"@Xu.] v e c B e q m , ; q . i '.J.5.& % > @ G #.Q b d 0 ; H XX@X",
"r.d.e m ' w B 6 > Y , G g X j ].J.7.; * 9 0 E $.E v Y q u H }.T.",
"u.0.R G e v v c s +.Y @.g . j ].J.7.; # g { h ( G - t 1.>.I `.Q.",
"u.3.,.1.K w r T f d ' f $ . j ].J.7.; * $ m G i c.n.= | } ^ ^./.",
"s.q.t 9 y y B y 9 - # >.Y . j ].J.7.; * : & G z c.A.F I E R W./.",
"@Xu.Z L Y r B y e t , b.` . p '.J.5.& % , # E #.J r F g , B |.@X",
"@Xg.D 9 s B v B e v 8 f 0 O $.OXR.f.C u # s ( / H c F s O o..X@X",
"@XP.&.6 ' T r v v 8 B # @ b >.2.[ A ..k = Y { I y t U O.4 z..X@X",
"@X@Xw.T 8 g K y B r q K d $ .   @ @ @ 2 L Y X.m n v N 8 n Q.@X@X",
"@X@Xk.S ; [ B 5 P P g s J ! l a a e m T V V y b 8 h [ X ,. X@X@X",
"@X@XQ.e.L : h T V ` m H j l l { T L Y v b v M K L Y 6 x T.[.@X@X",
"@X@X@XP.3.0 K F F Y M G ^ W k J M M v Y K v y h G T 8 9.(.@X@X@X",
"@X@X@X@Xg.6.8 r R m I G J ! ) n.I f | v.b t e ] v & -.E.@X@X@X@X",
"@X@X@X@X@Xh.b.m 1 F I H ) N ! J N g m H e U P 0 q -.k.@X@X@X@X@X",
"@X@X@X@X@X@XU.L.) o 1 Y H Q J E N I m M ' 0 w v ;.g.@X@X@X@X@X@X",
"@X@X@X@X@X@X@XY.{.C.( < + c v K L m K 2 8 F S w.P.@X@X@X@X@X@X@X",
"@X@X@X@X@X@X@X@Xp. XoX_.1.` L r v b P %.*.q.h.Q.@X@X@X@X@X@X@X@X",
"@X@X@X@X@X@X@X@X@X@X@X(.|./.L.F.m.9.i.j.Y.@X@X@X@X@X@X@X@X@X@X@X",
"@X@X@X@X@X@X@X@X@X@X@X@X@X@XJ.J.J.J.@X@X@X@X@X@X@X@X@X@X@X@X@X@X"
};
