/* XPM */
static char *result[] = {
/* columns rows colors chars-per-pixel */
"16 16 186 2 ",
"   c #00000A",
".  c #0F0E0B",
"X  c #0F0F0C",
"o  c #11100D",
"O  c #050917",
"+  c #060A19",
"@  c #131111",
"#  c #171511",
"$  c #1B1710",
"%  c #1F1B13",
"&  c #1B1A1A",
"*  c #1A1B1B",
"=  c #1F1C18",
"-  c #1D1D1D",
";  c #251F11",
":  c #231F16",
">  c #201E1C",
",  c #28200F",
"<  c #31260B",
"1  c #372909",
"2  c #33280E",
"3  c #3B2D0B",
"4  c #252012",
"5  c #272114",
"6  c #2A2411",
"7  c #2B2511",
"8  c #2C2412",
"9  c #2A2417",
"0  c #2E2817",
"q  c #222018",
"w  c #23211B",
"e  c #252218",
"r  c #252219",
"t  c #26221A",
"y  c #24221D",
"u  c #2C2618",
"i  c #2E2A1F",
"p  c #312A16",
"a  c #352E1A",
"s  c #352F1F",
"d  c #3E3417",
"f  c #36301B",
"g  c #3B3219",
"h  c #39311B",
"j  c #3D331A",
"k  c #3B321D",
"l  c #39331E",
"z  c #38321F",
"x  c #3F361D",
"c  c #3E361E",
"v  c #3F361E",
"b  c #2B2721",
"n  c #2E2A21",
"m  c #302C21",
"M  c #322E23",
"N  c #363122",
"B  c #373426",
"V  c #3A3420",
"C  c #3C3520",
"Z  c #3B3626",
"A  c #3C3624",
"S  c #3D382A",
"D  c #3F3C2F",
"F  c #4E3D10",
"G  c #403719",
"H  c #40361C",
"J  c #40371D",
"K  c #40361E",
"L  c #423819",
"P  c #463B1B",
"I  c #473B1D",
"U  c #443A1E",
"Y  c #453B1E",
"T  c #483D1D",
"R  c #4B3F1C",
"E  c #4B3F1F",
"W  c #403922",
"Q  c #433A23",
"!  c #453B21",
"~  c #443B23",
"^  c #443C23",
"/  c #403A27",
"(  c #4A3E20",
")  c #493F23",
"_  c #403A28",
"`  c #423B2A",
"'  c #443D28",
"]  c #453D28",
"[  c #463F2B",
"{  c #453F2C",
"}  c #413E31",
"|  c #554315",
" . c #544318",
".. c #52451F",
"X. c #55471E",
"o. c #775D12",
"O. c #745916",
"+. c #785D19",
"@. c #4B4122",
"#. c #4D4120",
"$. c #4C4123",
"%. c #494125",
"&. c #4A4126",
"*. c #4D4227",
"=. c #46402B",
"-. c #484128",
";. c #494128",
":. c #49432E",
">. c #524727",
",. c #564921",
"<. c #584A20",
"1. c #594C27",
"2. c #534828",
"3. c #574B28",
"4. c #50482E",
"5. c #524A2E",
"6. c #5B4E28",
"7. c #5A4D2A",
"8. c #5A4E2A",
"9. c #5A4F2A",
"0. c #594E2C",
"q. c #424136",
"w. c #474434",
"e. c #4C4631",
"r. c #454438",
"t. c #47483E",
"y. c #524B33",
"u. c #564F35",
"i. c #524E39",
"p. c #514D3A",
"a. c #5F5639",
"s. c #60512A",
"d. c #66582D",
"f. c #715E29",
"g. c #655830",
"h. c #615837",
"j. c #635939",
"k. c #645A39",
"l. c #635A3D",
"z. c #655C3C",
"x. c #7A6629",
"c. c #796B3C",
"v. c #937113",
"b. c #997A21",
"n. c #9B7B23",
"m. c #837139",
"M. c #847A54",
"N. c #9C802A",
"B. c #BF9723",
"V. c #A28937",
"C. c #BF9C36",
"Z. c #C29B26",
"A. c #C49E2C",
"S. c #C19C3A",
"D. c #C09D3D",
"F. c #CEA425",
"G. c #C8A63C",
"H. c #D5AF39",
"J. c #8C8056",
"K. c #8E875E",
"L. c #918658",
"P. c #90885F",
"I. c #A88F41",
"U. c #AE9441",
"Y. c #A99650",
"T. c #A99A62",
"R. c #AD9D62",
"E. c #CAA841",
"W. c #C7A749",
"Q. c #C7A74A",
"!. c #D5AE41",
"~. c #D4AF46",
"^. c #CAB35E",
"/. c #DBBB53",
"(. c #DCBC56",
"). c #D2B65B",
"_. c #E4BD4C",
"`. c #CEB662",
"'. c #D2BA62",
"]. c #D3BD6C",
"[. c #E4C55B",
"{. c #FCCF50",
"}. c #FDD050",
"|. c #D5C170",
" X c #E7CF73",
".X c None",
/* pixels */
".X.X.X.X.X.X/.W.S.!..X.X.X.X.X.X",
".X.X.X.X'.P.l.*.E  .+.E..X.X.X.X",
".X.X.XY.} 8 / e._ m w 3 n..X.X.X",
".X.XV.b j 5.r.z.d.K $.N : I..X.X",
".XA.` H ..@.B - > k f.#.u =.)..X",
".Xx.M <.g t 0 { ~ l z >.J $ L..X",
"F.1.c d q n # R.{.7 O i.2.o t.[.",
"B.0.U p ] ;.  J._.. y u.=.! a.].",
"Z.6.v G s g.@ M._.X & w.c.3.h.|.",
"H.F C L 4 ^ % T.}.6 + p.8.a -. X",
".Xo.i R P e r :.Q f %.9.h 5 m..X",
".XG.< V ,.&.D * = x X.T W 2 ^..X",
".X.Xb.9 Y 4.q.k.7.s.( A , N..X.X",
".X.X.XU.S ; Z y.[ ' n 1 v..X.X.X",
".X.X.X.X`.K.j.) I | O.C..X.X.X.X",
".X.X.X.X.X.X(.Q.D.~..X.X.X.X.X.X"
};
